solid OpenSCAD_Model
  facet normal -1 0 0
    outer loop
      vertex 0 28.2546 2.25251
      vertex 0 27.9886 2.25251
      vertex 0 28.2546 3.5325
    endloop
  endfacet
  facet normal -1 0 0
    outer loop
      vertex 0 59.6 -4
      vertex 0 31.0451 3.08448
      vertex 0 59.6 5.1
    endloop
  endfacet
  facet normal -1 0 0
    outer loop
      vertex 0 59.6 -4
      vertex 0 30.4701 1.6125
      vertex 0 31.0451 3.08448
    endloop
  endfacet
  facet normal -1 0 0
    outer loop
      vertex 0 59.6 -4
      vertex 0 30.1841 1.6125
      vertex 0 30.4701 1.6125
    endloop
  endfacet
  facet normal -1 0 0
    outer loop
      vertex 0 29.3796 2.2505
      vertex 0 30.1841 1.6125
      vertex 0 29.3796 2.0615
    endloop
  endfacet
  facet normal -1 0 0
    outer loop
      vertex 0 30.1841 1.6125
      vertex 0 28.4836 1.6125
      vertex 0 29.3796 2.0615
    endloop
  endfacet
  facet normal -1 0 0
    outer loop
      vertex 0 59.6 -4
      vertex 0 28.4836 1.6125
      vertex 0 30.1841 1.6125
    endloop
  endfacet
  facet normal -1 0 0
    outer loop
      vertex 0 0 -4
      vertex 0 28.4836 1.6125
      vertex 0 59.6 -4
    endloop
  endfacet
  facet normal -1 0 0
    outer loop
      vertex 0 28.2546 1.6125
      vertex 0 27.9886 2.0615
      vertex 0 28.2546 2.0615
    endloop
  endfacet
  facet normal -1 0 0
    outer loop
      vertex 0 0 5.1
      vertex 0 27.9886 2.0615
      vertex 0 0 -4
    endloop
  endfacet
  facet normal -1 -0 0
    outer loop
      vertex 0 28.2546 1.6125
      vertex 0 0 -4
      vertex 0 27.9886 2.0615
    endloop
  endfacet
  facet normal -1 -0 0
    outer loop
      vertex 0 28.4836 1.6125
      vertex 0 0 -4
      vertex 0 28.2546 1.6125
    endloop
  endfacet
  facet normal -1 0 0
    outer loop
      vertex 0 28.5096 3.5325
      vertex 0 31.0451 3.08448
      vertex 0 30.7871 3.08448
    endloop
  endfacet
  facet normal -1 0 0
    outer loop
      vertex 0 30.2761 1.96151
      vertex 0 30.4311 2.12451
      vertex 0 30.3281 1.80151
    endloop
  endfacet
  facet normal -1 0 0
    outer loop
      vertex 0 30.2171 2.1215
      vertex 0 30.4311 2.12451
      vertex 0 30.2761 1.96151
    endloop
  endfacet
  facet normal -1 -0 0
    outer loop
      vertex 0 30.4311 2.12451
      vertex 0 30.2171 2.1215
      vertex 0 30.7871 3.08448
    endloop
  endfacet
  facet normal -1 0 0
    outer loop
      vertex 0 29.8501 3.08448
      vertex 0 30.7871 3.08448
      vertex 0 30.2171 2.1215
    endloop
  endfacet
  facet normal -1 0 0
    outer loop
      vertex 0 28.5096 3.5325
      vertex 0 30.7871 3.08448
      vertex 0 29.8501 3.08448
    endloop
  endfacet
  facet normal -1 0 0
    outer loop
      vertex 0 28.5096 3.5325
      vertex 0 29.8501 3.08448
      vertex 0 29.5931 3.08448
    endloop
  endfacet
  facet normal -1 0 0
    outer loop
      vertex 0 30.1841 1.6125
      vertex 0 29.3796 2.2505
      vertex 0 29.5931 3.08448
    endloop
  endfacet
  facet normal -1 0 0
    outer loop
      vertex 0 28.5096 3.5325
      vertex 0 29.5931 3.08448
      vertex 0 29.3796 2.2505
    endloop
  endfacet
  facet normal -1 0 0
    outer loop
      vertex 0 31.0451 3.08448
      vertex 0 28.5096 3.5325
      vertex 0 59.6 5.1
    endloop
  endfacet
  facet normal -1 0 0
    outer loop
      vertex 0 28.2546 3.5325
      vertex 0 59.6 5.1
      vertex 0 28.5096 3.5325
    endloop
  endfacet
  facet normal -1 0 0
    outer loop
      vertex 0 27.9886 2.0615
      vertex 0 0 5.1
      vertex 0 27.9886 2.25251
    endloop
  endfacet
  facet normal -1 0 0
    outer loop
      vertex 0 28.2546 3.5325
      vertex 0 0 5.1
      vertex 0 59.6 5.1
    endloop
  endfacet
  facet normal -1 0 0
    outer loop
      vertex 0 27.9886 2.25251
      vertex 0 0 5.1
      vertex 0 28.2546 3.5325
    endloop
  endfacet
  facet normal -1 -0 0
    outer loop
      vertex 0 29.3796 2.0615
      vertex 0 28.4836 1.6125
      vertex 0 28.4836 2.0615
    endloop
  endfacet
  facet normal -1 0 0
    outer loop
      vertex 0 28.4836 2.25251
      vertex 0 29.1346 2.27951
      vertex 0 29.1566 2.25251
    endloop
  endfacet
  facet normal -1 0 0
    outer loop
      vertex 0 28.4836 2.25251
      vertex 0 29.0616 2.37951
      vertex 0 29.1346 2.27951
    endloop
  endfacet
  facet normal -1 0 0
    outer loop
      vertex 0 28.4836 2.25251
      vertex 0 28.5746 3.0995
      vertex 0 29.0616 2.37951
    endloop
  endfacet
  facet normal -1 0 0
    outer loop
      vertex 0 28.4836 2.25251
      vertex 0 28.5523 3.13475
      vertex 0 28.5746 3.0995
    endloop
  endfacet
  facet normal -1 -0 0
    outer loop
      vertex 0 28.5523 3.13475
      vertex 0 28.4836 2.25251
      vertex 0 28.4836 3.26049
    endloop
  endfacet
  facet normal 0 0 1
    outer loop
      vertex 87.1 59.6 5.1
      vertex 75.05 29.8 5.1
      vertex 87.1 0 5.1
    endloop
  endfacet
  facet normal 0 0 1
    outer loop
      vertex 87.1 59.6 5.1
      vertex 74.8096 32.087 5.1
      vertex 75.05 29.8 5.1
    endloop
  endfacet
  facet normal 0 0 1
    outer loop
      vertex 87.1 59.6 5.1
      vertex 74.099 34.2741 5.1
      vertex 74.8096 32.087 5.1
    endloop
  endfacet
  facet normal 0 0 1
    outer loop
      vertex 87.1 59.6 5.1
      vertex 72.9492 36.2656 5.1
      vertex 74.099 34.2741 5.1
    endloop
  endfacet
  facet normal 0 0 1
    outer loop
      vertex 87.1 59.6 5.1
      vertex 71.4104 37.9746 5.1
      vertex 72.9492 36.2656 5.1
    endloop
  endfacet
  facet normal 0 0 1
    outer loop
      vertex 87.1 59.6 5.1
      vertex 69.55 39.3263 5.1
      vertex 71.4104 37.9746 5.1
    endloop
  endfacet
  facet normal 0 0 1
    outer loop
      vertex 87.1 59.6 5.1
      vertex 67.4492 40.2616 5.1
      vertex 69.55 39.3263 5.1
    endloop
  endfacet
  facet normal 0 0 1
    outer loop
      vertex 87.1 59.6 5.1
      vertex 65.1998 40.7397 5.1
      vertex 67.4492 40.2616 5.1
    endloop
  endfacet
  facet normal -0 0 1
    outer loop
      vertex 0 59.6 5.1
      vertex 65.1998 40.7397 5.1
      vertex 87.1 59.6 5.1
    endloop
  endfacet
  facet normal 0 0 1
    outer loop
      vertex 12.1461 32.087 5.1
      vertex 0 59.6 5.1
      vertex 12.05 29.8 5.1
    endloop
  endfacet
  facet normal 0 0 1
    outer loop
      vertex 12.4304 34.2741 5.1
      vertex 0 59.6 5.1
      vertex 12.1461 32.087 5.1
    endloop
  endfacet
  facet normal 0 0 1
    outer loop
      vertex 12.8903 36.2656 5.1
      vertex 0 59.6 5.1
      vertex 12.4304 34.2741 5.1
    endloop
  endfacet
  facet normal 0 0 1
    outer loop
      vertex 13.5058 37.9746 5.1
      vertex 0 59.6 5.1
      vertex 12.8903 36.2656 5.1
    endloop
  endfacet
  facet normal 0 0 1
    outer loop
      vertex 14.25 39.3263 5.1
      vertex 0 59.6 5.1
      vertex 13.5058 37.9746 5.1
    endloop
  endfacet
  facet normal 0 0 1
    outer loop
      vertex 15.0903 40.2616 5.1
      vertex 0 59.6 5.1
      vertex 14.25 39.3263 5.1
    endloop
  endfacet
  facet normal 0 0 1
    outer loop
      vertex 15.9901 40.7397 5.1
      vertex 0 59.6 5.1
      vertex 15.0903 40.2616 5.1
    endloop
  endfacet
  facet normal 0 0 1
    outer loop
      vertex 65.1998 40.7397 5.1
      vertex 0 59.6 5.1
      vertex 15.9901 40.7397 5.1
    endloop
  endfacet
  facet normal -0 0 1
    outer loop
      vertex 74.8096 27.513 5.1
      vertex 87.1 0 5.1
      vertex 75.05 29.8 5.1
    endloop
  endfacet
  facet normal -0 0 1
    outer loop
      vertex 74.099 25.3259 5.1
      vertex 87.1 0 5.1
      vertex 74.8096 27.513 5.1
    endloop
  endfacet
  facet normal -0 0 1
    outer loop
      vertex 72.9492 23.3344 5.1
      vertex 87.1 0 5.1
      vertex 74.099 25.3259 5.1
    endloop
  endfacet
  facet normal -0 0 1
    outer loop
      vertex 71.4104 21.6254 5.1
      vertex 87.1 0 5.1
      vertex 72.9492 23.3344 5.1
    endloop
  endfacet
  facet normal -0 0 1
    outer loop
      vertex 69.55 20.2737 5.1
      vertex 87.1 0 5.1
      vertex 71.4104 21.6254 5.1
    endloop
  endfacet
  facet normal -0 0 1
    outer loop
      vertex 67.4492 19.3384 5.1
      vertex 87.1 0 5.1
      vertex 69.55 20.2737 5.1
    endloop
  endfacet
  facet normal -0 0 1
    outer loop
      vertex 65.1998 18.8603 5.1
      vertex 87.1 0 5.1
      vertex 67.4492 19.3384 5.1
    endloop
  endfacet
  facet normal 0 0 1
    outer loop
      vertex 0 0 5.1
      vertex 65.1998 18.8603 5.1
      vertex 15.9901 18.8603 5.1
    endloop
  endfacet
  facet normal 0 0 1
    outer loop
      vertex 0 0 5.1
      vertex 12.05 29.8 5.1
      vertex 0 59.6 5.1
    endloop
  endfacet
  facet normal 0 0 1
    outer loop
      vertex 12.05 29.8 5.1
      vertex 0 0 5.1
      vertex 12.1461 27.513 5.1
    endloop
  endfacet
  facet normal 0 0 1
    outer loop
      vertex 12.1461 27.513 5.1
      vertex 0 0 5.1
      vertex 12.4304 25.3259 5.1
    endloop
  endfacet
  facet normal 0 0 1
    outer loop
      vertex 65.1998 18.8603 5.1
      vertex 0 0 5.1
      vertex 87.1 0 5.1
    endloop
  endfacet
  facet normal 0 0 1
    outer loop
      vertex 15.0903 19.3384 5.1
      vertex 0 0 5.1
      vertex 15.9901 18.8603 5.1
    endloop
  endfacet
  facet normal 0 0 1
    outer loop
      vertex 14.25 20.2737 5.1
      vertex 0 0 5.1
      vertex 15.0903 19.3384 5.1
    endloop
  endfacet
  facet normal 0 0 1
    outer loop
      vertex 13.5058 21.6254 5.1
      vertex 0 0 5.1
      vertex 14.25 20.2737 5.1
    endloop
  endfacet
  facet normal 0 0 1
    outer loop
      vertex 12.8903 23.3344 5.1
      vertex 0 0 5.1
      vertex 13.5058 21.6254 5.1
    endloop
  endfacet
  facet normal 0 0 1
    outer loop
      vertex 12.4304 25.3259 5.1
      vertex 0 0 5.1
      vertex 12.8903 23.3344 5.1
    endloop
  endfacet
  facet normal 1 -0 0
    outer loop
      vertex 87.1 2.5 0.4
      vertex 87.1 27.06 0
      vertex 87.1 57.1 0.4
    endloop
  endfacet
  facet normal 1 0 0
    outer loop
      vertex 87.1 27.06 0
      vertex 87.1 2.5 0.4
      vertex 87.1 1 0
    endloop
  endfacet
  facet normal 1 0 0
    outer loop
      vertex 87.1 57.1 0.4
      vertex 87.1 59.6 5.1
      vertex 87.1 57.1 4.1
    endloop
  endfacet
  facet normal 1 0 0
    outer loop
      vertex 87.1 59.6 5.1
      vertex 87.1 2.5 4.1
      vertex 87.1 57.1 4.1
    endloop
  endfacet
  facet normal 1 0 0
    outer loop
      vertex 87.1 2.5 4.1
      vertex 87.1 1 0
      vertex 87.1 2.5 0.4
    endloop
  endfacet
  facet normal 1 0 0
    outer loop
      vertex 87.1 0 -4
      vertex 87.1 1 0
      vertex 87.1 0 5.1
    endloop
  endfacet
  facet normal 1 0 0
    outer loop
      vertex 87.1 2.5 4.1
      vertex 87.1 0 5.1
      vertex 87.1 1 0
    endloop
  endfacet
  facet normal 1 -0 0
    outer loop
      vertex 87.1 0 5.1
      vertex 87.1 2.5 4.1
      vertex 87.1 59.6 5.1
    endloop
  endfacet
  facet normal 1 0 0
    outer loop
      vertex 87.1 59.6 5.1
      vertex 87.1 57.1 0.4
      vertex 87.1 59.6 -4
    endloop
  endfacet
  facet normal 1 0 0
    outer loop
      vertex 87.1 27.06 -3
      vertex 87.1 57.1 0.4
      vertex 87.1 27.06 0
    endloop
  endfacet
  facet normal 1 0 0
    outer loop
      vertex 87.1 57.1 0.4
      vertex 87.1 27.06 -3
      vertex 87.1 59.6 -4
    endloop
  endfacet
  facet normal 1 0 0
    outer loop
      vertex 87.1 0 -4
      vertex 87.1 27.06 -3
      vertex 87.1 1 -3
    endloop
  endfacet
  facet normal 1 0 0
    outer loop
      vertex 87.1 27.06 -3
      vertex 87.1 0 -4
      vertex 87.1 59.6 -4
    endloop
  endfacet
  facet normal 1 0 0
    outer loop
      vertex 87.1 1 0
      vertex 87.1 0 -4
      vertex 87.1 1 -3
    endloop
  endfacet
  facet normal 0 0 -1
    outer loop
      vertex 29.32 10.25 0
      vertex 56.42 17.81 0
      vertex 56.42 10.25 0
    endloop
  endfacet
  facet normal -0 0 -1
    outer loop
      vertex 56.42 17.81 0
      vertex 29.32 10.25 0
      vertex 29.32 17.81 0
    endloop
  endfacet
  facet normal 0 0 -1
    outer loop
      vertex 86.6 1 0
      vertex 87.1 27.06 0
      vertex 87.1 1 0
    endloop
  endfacet
  facet normal 0 0 -1
    outer loop
      vertex 86.6 1 0
      vertex 86.6 27.06 0
      vertex 87.1 27.06 0
    endloop
  endfacet
  facet normal 0 0 -1
    outer loop
      vertex 56.42 10.25 0
      vertex 86.6 1 0
      vertex 56.42 7.45001 0
    endloop
  endfacet
  facet normal 0 0 -1
    outer loop
      vertex 86.6 1 0
      vertex 56.42 10.25 0
      vertex 86.6 27.06 0
    endloop
  endfacet
  facet normal 0 0 -1
    outer loop
      vertex 56.42 17.81 0
      vertex 86.6 27.06 0
      vertex 56.42 10.25 0
    endloop
  endfacet
  facet normal 0 0 -1
    outer loop
      vertex 86.6 27.06 0
      vertex 56.42 17.81 0
      vertex 56.42 20.61 0
    endloop
  endfacet
  facet normal 0 0 -1
    outer loop
      vertex 77.5 27.1 0
      vertex 84.6 57.1 0
      vertex 84.6 27.1 0
    endloop
  endfacet
  facet normal 0 0 -1
    outer loop
      vertex 42.5 20.1 0
      vertex 84.6 57.1 0
      vertex 77.5 27.1 0
    endloop
  endfacet
  facet normal 0 0 -1
    outer loop
      vertex 2.5 57.1 0
      vertex 42.5 20.1 0
      vertex 2.5 20.1 0
    endloop
  endfacet
  facet normal 0 0 -1
    outer loop
      vertex 42.5 20.1 0
      vertex 2.5 57.1 0
      vertex 84.6 57.1 0
    endloop
  endfacet
  facet normal 0 -1 0
    outer loop
      vertex 0 0 -4
      vertex 87.1 0 5.1
      vertex 0 0 5.1
    endloop
  endfacet
  facet normal 0 -1 -0
    outer loop
      vertex 87.1 0 5.1
      vertex 0 0 -4
      vertex 87.1 0 -4
    endloop
  endfacet
  facet normal 0 1 -0
    outer loop
      vertex 87.1 59.6 -4
      vertex 0 59.6 5.1
      vertex 87.1 59.6 5.1
    endloop
  endfacet
  facet normal 0 1 0
    outer loop
      vertex 0 59.6 5.1
      vertex 87.1 59.6 -4
      vertex 0 59.6 -4
    endloop
  endfacet
  facet normal 1 -0 0
    outer loop
      vertex 2.5 2.5 4.1
      vertex 2.5 57.1 0.4
      vertex 2.5 57.1 4.1
    endloop
  endfacet
  facet normal 1 0 0
    outer loop
      vertex 2.5 57.1 0.4
      vertex 2.5 2.5 4.1
      vertex 2.5 2.5 0.4
    endloop
  endfacet
  facet normal 0 0 -1
    outer loop
      vertex 87.1 2.5 4.1
      vertex 75.05 29.8 4.1
      vertex 87.1 57.1 4.1
    endloop
  endfacet
  facet normal 0 0 -1
    outer loop
      vertex 87.1 2.5 4.1
      vertex 74.8096 27.513 4.1
      vertex 75.05 29.8 4.1
    endloop
  endfacet
  facet normal 0 0 -1
    outer loop
      vertex 87.1 2.5 4.1
      vertex 74.099 25.3259 4.1
      vertex 74.8096 27.513 4.1
    endloop
  endfacet
  facet normal 0 0 -1
    outer loop
      vertex 87.1 2.5 4.1
      vertex 72.9492 23.3344 4.1
      vertex 74.099 25.3259 4.1
    endloop
  endfacet
  facet normal 0 0 -1
    outer loop
      vertex 87.1 2.5 4.1
      vertex 71.4104 21.6254 4.1
      vertex 72.9492 23.3344 4.1
    endloop
  endfacet
  facet normal 0 0 -1
    outer loop
      vertex 87.1 2.5 4.1
      vertex 69.55 20.2737 4.1
      vertex 71.4104 21.6254 4.1
    endloop
  endfacet
  facet normal 0 0 -1
    outer loop
      vertex 87.1 2.5 4.1
      vertex 67.4492 19.3384 4.1
      vertex 69.55 20.2737 4.1
    endloop
  endfacet
  facet normal 0 0 -1
    outer loop
      vertex 87.1 2.5 4.1
      vertex 65.1998 18.8603 4.1
      vertex 67.4492 19.3384 4.1
    endloop
  endfacet
  facet normal 0 0 -1
    outer loop
      vertex 2.5 2.5 4.1
      vertex 65.1998 18.8603 4.1
      vertex 87.1 2.5 4.1
    endloop
  endfacet
  facet normal -0 0 -1
    outer loop
      vertex 12.1461 27.513 4.1
      vertex 2.5 2.5 4.1
      vertex 12.05 29.8 4.1
    endloop
  endfacet
  facet normal -0 0 -1
    outer loop
      vertex 12.4304 25.3259 4.1
      vertex 2.5 2.5 4.1
      vertex 12.1461 27.513 4.1
    endloop
  endfacet
  facet normal -0 0 -1
    outer loop
      vertex 12.8903 23.3344 4.1
      vertex 2.5 2.5 4.1
      vertex 12.4304 25.3259 4.1
    endloop
  endfacet
  facet normal -0 0 -1
    outer loop
      vertex 13.5058 21.6254 4.1
      vertex 2.5 2.5 4.1
      vertex 12.8903 23.3344 4.1
    endloop
  endfacet
  facet normal -0 0 -1
    outer loop
      vertex 14.25 20.2737 4.1
      vertex 2.5 2.5 4.1
      vertex 13.5058 21.6254 4.1
    endloop
  endfacet
  facet normal -0 0 -1
    outer loop
      vertex 15.0903 19.3384 4.1
      vertex 2.5 2.5 4.1
      vertex 14.25 20.2737 4.1
    endloop
  endfacet
  facet normal -0 0 -1
    outer loop
      vertex 15.9901 18.8603 4.1
      vertex 2.5 2.5 4.1
      vertex 15.0903 19.3384 4.1
    endloop
  endfacet
  facet normal -0 0 -1
    outer loop
      vertex 65.1998 18.8603 4.1
      vertex 2.5 2.5 4.1
      vertex 15.9901 18.8603 4.1
    endloop
  endfacet
  facet normal 0 0 -1
    outer loop
      vertex 74.8096 32.087 4.1
      vertex 87.1 57.1 4.1
      vertex 75.05 29.8 4.1
    endloop
  endfacet
  facet normal 0 0 -1
    outer loop
      vertex 74.099 34.2741 4.1
      vertex 87.1 57.1 4.1
      vertex 74.8096 32.087 4.1
    endloop
  endfacet
  facet normal 0 0 -1
    outer loop
      vertex 72.9492 36.2656 4.1
      vertex 87.1 57.1 4.1
      vertex 74.099 34.2741 4.1
    endloop
  endfacet
  facet normal 0 0 -1
    outer loop
      vertex 71.4104 37.9746 4.1
      vertex 87.1 57.1 4.1
      vertex 72.9492 36.2656 4.1
    endloop
  endfacet
  facet normal 0 0 -1
    outer loop
      vertex 69.55 39.3263 4.1
      vertex 87.1 57.1 4.1
      vertex 71.4104 37.9746 4.1
    endloop
  endfacet
  facet normal 0 0 -1
    outer loop
      vertex 67.4492 40.2616 4.1
      vertex 87.1 57.1 4.1
      vertex 69.55 39.3263 4.1
    endloop
  endfacet
  facet normal 0 0 -1
    outer loop
      vertex 65.1998 40.7397 4.1
      vertex 87.1 57.1 4.1
      vertex 67.4492 40.2616 4.1
    endloop
  endfacet
  facet normal 0 0 -1
    outer loop
      vertex 2.5 57.1 4.1
      vertex 65.1998 40.7397 4.1
      vertex 15.9901 40.7397 4.1
    endloop
  endfacet
  facet normal 0 0 -1
    outer loop
      vertex 2.5 57.1 4.1
      vertex 12.05 29.8 4.1
      vertex 2.5 2.5 4.1
    endloop
  endfacet
  facet normal 0 0 -1
    outer loop
      vertex 12.05 29.8 4.1
      vertex 2.5 57.1 4.1
      vertex 12.1461 32.087 4.1
    endloop
  endfacet
  facet normal 0 0 -1
    outer loop
      vertex 12.1461 32.087 4.1
      vertex 2.5 57.1 4.1
      vertex 12.4304 34.2741 4.1
    endloop
  endfacet
  facet normal 0 0 -1
    outer loop
      vertex 65.1998 40.7397 4.1
      vertex 2.5 57.1 4.1
      vertex 87.1 57.1 4.1
    endloop
  endfacet
  facet normal 0 0 -1
    outer loop
      vertex 15.0903 40.2616 4.1
      vertex 2.5 57.1 4.1
      vertex 15.9901 40.7397 4.1
    endloop
  endfacet
  facet normal 0 0 -1
    outer loop
      vertex 14.25 39.3263 4.1
      vertex 2.5 57.1 4.1
      vertex 15.0903 40.2616 4.1
    endloop
  endfacet
  facet normal 0 0 -1
    outer loop
      vertex 13.5058 37.9746 4.1
      vertex 2.5 57.1 4.1
      vertex 14.25 39.3263 4.1
    endloop
  endfacet
  facet normal 0 0 -1
    outer loop
      vertex 12.8903 36.2656 4.1
      vertex 2.5 57.1 4.1
      vertex 13.5058 37.9746 4.1
    endloop
  endfacet
  facet normal 0 0 -1
    outer loop
      vertex 12.4304 34.2741 4.1
      vertex 2.5 57.1 4.1
      vertex 12.8903 36.2656 4.1
    endloop
  endfacet
  facet normal -0 0 1
    outer loop
      vertex 2.5 57.1 0.4
      vertex 87.1 2.5 0.4
      vertex 87.1 57.1 0.4
    endloop
  endfacet
  facet normal 0 0 1
    outer loop
      vertex 87.1 2.5 0.4
      vertex 2.5 57.1 0.4
      vertex 2.5 2.5 0.4
    endloop
  endfacet
  facet normal 0 1 -0
    outer loop
      vertex 87.1 2.5 0.4
      vertex 2.5 2.5 4.1
      vertex 87.1 2.5 4.1
    endloop
  endfacet
  facet normal 0 1 0
    outer loop
      vertex 2.5 2.5 4.1
      vertex 87.1 2.5 0.4
      vertex 2.5 2.5 0.4
    endloop
  endfacet
  facet normal 0 -1 0
    outer loop
      vertex 2.5 57.1 0.4
      vertex 87.1 57.1 4.1
      vertex 2.5 57.1 4.1
    endloop
  endfacet
  facet normal 0 -1 -0
    outer loop
      vertex 87.1 57.1 4.1
      vertex 2.5 57.1 0.4
      vertex 87.1 57.1 0.4
    endloop
  endfacet
  facet normal 0.999117 -0.0420045 0
    outer loop
      vertex 12.05 29.8 5.1
      vertex 12.1461 32.087 4.1
      vertex 12.1461 32.087 5.1
    endloop
  endfacet
  facet normal 0.999117 -0.0420045 0
    outer loop
      vertex 12.1461 32.087 4.1
      vertex 12.05 29.8 5.1
      vertex 12.05 29.8 4.1
    endloop
  endfacet
  facet normal 0 1 -0
    outer loop
      vertex 65.1998 18.8603 4.1
      vertex 15.9901 18.8603 5.1
      vertex 65.1998 18.8603 5.1
    endloop
  endfacet
  facet normal 0 1 0
    outer loop
      vertex 15.9901 18.8603 5.1
      vertex 65.1998 18.8603 4.1
      vertex 15.9901 18.8603 4.1
    endloop
  endfacet
  facet normal 0 -1 0
    outer loop
      vertex 15.9901 40.7397 4.1
      vertex 65.1998 40.7397 5.1
      vertex 15.9901 40.7397 5.1
    endloop
  endfacet
  facet normal 0 -1 -0
    outer loop
      vertex 65.1998 40.7397 5.1
      vertex 15.9901 40.7397 4.1
      vertex 65.1998 40.7397 4.1
    endloop
  endfacet
  facet normal 0.876012 0.48229 0
    outer loop
      vertex 14.25 20.2737 5.1
      vertex 13.5058 21.6254 4.1
      vertex 13.5058 21.6254 5.1
    endloop
  endfacet
  facet normal 0.876012 0.48229 0
    outer loop
      vertex 13.5058 21.6254 4.1
      vertex 14.25 20.2737 5.1
      vertex 14.25 20.2737 4.1
    endloop
  endfacet
  facet normal 0.999117 0.0420045 0
    outer loop
      vertex 12.1461 27.513 5.1
      vertex 12.05 29.8 4.1
      vertex 12.05 29.8 5.1
    endloop
  endfacet
  facet normal 0.999117 0.0420045 0
    outer loop
      vertex 12.05 29.8 4.1
      vertex 12.1461 27.513 5.1
      vertex 12.1461 27.513 4.1
    endloop
  endfacet
  facet normal 0.940839 -0.338854 0
    outer loop
      vertex 12.8903 36.2656 5.1
      vertex 13.5058 37.9746 4.1
      vertex 13.5058 37.9746 5.1
    endloop
  endfacet
  facet normal 0.940839 -0.338854 0
    outer loop
      vertex 13.5058 37.9746 4.1
      vertex 12.8903 36.2656 5.1
      vertex 12.8903 36.2656 4.1
    endloop
  endfacet
  facet normal -0.207912 -0.978148 0
    outer loop
      vertex 65.1998 40.7397 4.1
      vertex 67.4492 40.2616 5.1
      vertex 65.1998 40.7397 5.1
    endloop
  endfacet
  facet normal -0.207912 -0.978148 -0
    outer loop
      vertex 67.4492 40.2616 5.1
      vertex 65.1998 40.7397 4.1
      vertex 67.4492 40.2616 4.1
    endloop
  endfacet
  facet normal -0.587786 0.809017 0
    outer loop
      vertex 71.4104 21.6254 4.1
      vertex 69.55 20.2737 5.1
      vertex 71.4104 21.6254 5.1
    endloop
  endfacet
  facet normal -0.587786 0.809017 0
    outer loop
      vertex 69.55 20.2737 5.1
      vertex 71.4104 21.6254 4.1
      vertex 69.55 20.2737 4.1
    endloop
  endfacet
  facet normal -0.207912 0.978148 0
    outer loop
      vertex 67.4492 19.3384 4.1
      vertex 65.1998 18.8603 5.1
      vertex 67.4492 19.3384 5.1
    endloop
  endfacet
  facet normal -0.207912 0.978148 0
    outer loop
      vertex 65.1998 18.8603 5.1
      vertex 67.4492 19.3384 4.1
      vertex 65.1998 18.8603 4.1
    endloop
  endfacet
  facet normal -0.951056 0.309018 0
    outer loop
      vertex 74.099 25.3259 4.1
      vertex 74.8096 27.513 5.1
      vertex 74.8096 27.513 4.1
    endloop
  endfacet
  facet normal -0.951056 0.309018 0
    outer loop
      vertex 74.8096 27.513 5.1
      vertex 74.099 25.3259 4.1
      vertex 74.099 25.3259 5.1
    endloop
  endfacet
  facet normal -0.743145 0.66913 0
    outer loop
      vertex 71.4104 21.6254 4.1
      vertex 72.9492 23.3344 5.1
      vertex 72.9492 23.3344 4.1
    endloop
  endfacet
  facet normal -0.743145 0.66913 0
    outer loop
      vertex 72.9492 23.3344 5.1
      vertex 71.4104 21.6254 4.1
      vertex 71.4104 21.6254 5.1
    endloop
  endfacet
  facet normal -0.994522 0.10453 0
    outer loop
      vertex 74.8096 27.513 4.1
      vertex 75.05 29.8 5.1
      vertex 75.05 29.8 4.1
    endloop
  endfacet
  facet normal -0.994522 0.10453 0
    outer loop
      vertex 75.05 29.8 5.1
      vertex 74.8096 27.513 4.1
      vertex 74.8096 27.513 5.1
    endloop
  endfacet
  facet normal 0.74388 0.668314 0
    outer loop
      vertex 15.0903 19.3384 5.1
      vertex 14.25 20.2737 4.1
      vertex 14.25 20.2737 5.1
    endloop
  endfacet
  facet normal 0.74388 0.668314 0
    outer loop
      vertex 14.25 20.2737 4.1
      vertex 15.0903 19.3384 5.1
      vertex 15.0903 19.3384 4.1
    endloop
  endfacet
  facet normal 0.940839 0.338854 0
    outer loop
      vertex 13.5058 21.6254 5.1
      vertex 12.8903 23.3344 4.1
      vertex 12.8903 23.3344 5.1
    endloop
  endfacet
  facet normal 0.940839 0.338854 0
    outer loop
      vertex 12.8903 23.3344 4.1
      vertex 13.5058 21.6254 5.1
      vertex 13.5058 21.6254 4.1
    endloop
  endfacet
  facet normal 0.99166 0.128884 0
    outer loop
      vertex 12.4304 25.3259 5.1
      vertex 12.1461 27.513 4.1
      vertex 12.1461 27.513 5.1
    endloop
  endfacet
  facet normal 0.99166 0.128884 0
    outer loop
      vertex 12.1461 27.513 4.1
      vertex 12.4304 25.3259 5.1
      vertex 12.4304 25.3259 4.1
    endloop
  endfacet
  facet normal 0.99166 -0.128884 0
    outer loop
      vertex 12.1461 32.087 5.1
      vertex 12.4304 34.2741 4.1
      vertex 12.4304 34.2741 5.1
    endloop
  endfacet
  facet normal 0.99166 -0.128884 0
    outer loop
      vertex 12.4304 34.2741 4.1
      vertex 12.1461 32.087 5.1
      vertex 12.1461 32.087 4.1
    endloop
  endfacet
  facet normal 0.974355 -0.225017 0
    outer loop
      vertex 12.4304 34.2741 5.1
      vertex 12.8903 36.2656 4.1
      vertex 12.8903 36.2656 5.1
    endloop
  endfacet
  facet normal 0.974355 -0.225017 0
    outer loop
      vertex 12.8903 36.2656 4.1
      vertex 12.4304 34.2741 5.1
      vertex 12.4304 34.2741 4.1
    endloop
  endfacet
  facet normal 0.74388 -0.668314 0
    outer loop
      vertex 14.25 39.3263 5.1
      vertex 15.0903 40.2616 4.1
      vertex 15.0903 40.2616 5.1
    endloop
  endfacet
  facet normal 0.74388 -0.668314 0
    outer loop
      vertex 15.0903 40.2616 4.1
      vertex 14.25 39.3263 5.1
      vertex 14.25 39.3263 4.1
    endloop
  endfacet
  facet normal 0.469252 -0.883064 0
    outer loop
      vertex 15.0903 40.2616 4.1
      vertex 15.9901 40.7397 5.1
      vertex 15.0903 40.2616 5.1
    endloop
  endfacet
  facet normal 0.469252 -0.883064 0
    outer loop
      vertex 15.9901 40.7397 5.1
      vertex 15.0903 40.2616 4.1
      vertex 15.9901 40.7397 4.1
    endloop
  endfacet
  facet normal 0.876011 -0.482291 0
    outer loop
      vertex 13.5058 37.9746 5.1
      vertex 14.25 39.3263 4.1
      vertex 14.25 39.3263 5.1
    endloop
  endfacet
  facet normal 0.876011 -0.482291 0
    outer loop
      vertex 14.25 39.3263 4.1
      vertex 13.5058 37.9746 5.1
      vertex 13.5058 37.9746 4.1
    endloop
  endfacet
  facet normal -0.406736 -0.913546 0
    outer loop
      vertex 67.4492 40.2616 4.1
      vertex 69.55 39.3263 5.1
      vertex 67.4492 40.2616 5.1
    endloop
  endfacet
  facet normal -0.406736 -0.913546 -0
    outer loop
      vertex 69.55 39.3263 5.1
      vertex 67.4492 40.2616 4.1
      vertex 69.55 39.3263 4.1
    endloop
  endfacet
  facet normal -0.866026 -0.499999 0
    outer loop
      vertex 74.099 34.2741 4.1
      vertex 72.9492 36.2656 5.1
      vertex 72.9492 36.2656 4.1
    endloop
  endfacet
  facet normal -0.866026 -0.499999 0
    outer loop
      vertex 72.9492 36.2656 5.1
      vertex 74.099 34.2741 4.1
      vertex 74.099 34.2741 5.1
    endloop
  endfacet
  facet normal -0.406736 0.913546 0
    outer loop
      vertex 69.55 20.2737 4.1
      vertex 67.4492 19.3384 5.1
      vertex 69.55 20.2737 5.1
    endloop
  endfacet
  facet normal -0.406736 0.913546 0
    outer loop
      vertex 67.4492 19.3384 5.1
      vertex 69.55 20.2737 4.1
      vertex 67.4492 19.3384 4.1
    endloop
  endfacet
  facet normal -0.866026 0.499999 0
    outer loop
      vertex 72.9492 23.3344 4.1
      vertex 74.099 25.3259 5.1
      vertex 74.099 25.3259 4.1
    endloop
  endfacet
  facet normal -0.866026 0.499999 0
    outer loop
      vertex 74.099 25.3259 5.1
      vertex 72.9492 23.3344 4.1
      vertex 72.9492 23.3344 5.1
    endloop
  endfacet
  facet normal 0.469252 0.883064 -0
    outer loop
      vertex 15.9901 18.8603 4.1
      vertex 15.0903 19.3384 5.1
      vertex 15.9901 18.8603 5.1
    endloop
  endfacet
  facet normal 0.469252 0.883064 0
    outer loop
      vertex 15.0903 19.3384 5.1
      vertex 15.9901 18.8603 4.1
      vertex 15.0903 19.3384 4.1
    endloop
  endfacet
  facet normal 0.974355 0.225017 0
    outer loop
      vertex 12.8903 23.3344 5.1
      vertex 12.4304 25.3259 4.1
      vertex 12.4304 25.3259 5.1
    endloop
  endfacet
  facet normal 0.974355 0.225017 0
    outer loop
      vertex 12.4304 25.3259 4.1
      vertex 12.8903 23.3344 5.1
      vertex 12.8903 23.3344 4.1
    endloop
  endfacet
  facet normal -0.587785 -0.809017 0
    outer loop
      vertex 69.55 39.3263 4.1
      vertex 71.4104 37.9746 5.1
      vertex 69.55 39.3263 5.1
    endloop
  endfacet
  facet normal -0.587785 -0.809017 -0
    outer loop
      vertex 71.4104 37.9746 5.1
      vertex 69.55 39.3263 4.1
      vertex 71.4104 37.9746 4.1
    endloop
  endfacet
  facet normal -0.743145 -0.66913 0
    outer loop
      vertex 72.9492 36.2656 4.1
      vertex 71.4104 37.9746 5.1
      vertex 71.4104 37.9746 4.1
    endloop
  endfacet
  facet normal -0.743145 -0.66913 0
    outer loop
      vertex 71.4104 37.9746 5.1
      vertex 72.9492 36.2656 4.1
      vertex 72.9492 36.2656 5.1
    endloop
  endfacet
  facet normal -0.951056 -0.309018 0
    outer loop
      vertex 74.8096 32.087 4.1
      vertex 74.099 34.2741 5.1
      vertex 74.099 34.2741 4.1
    endloop
  endfacet
  facet normal -0.951056 -0.309018 0
    outer loop
      vertex 74.099 34.2741 5.1
      vertex 74.8096 32.087 4.1
      vertex 74.8096 32.087 5.1
    endloop
  endfacet
  facet normal -0.994522 -0.10453 0
    outer loop
      vertex 75.05 29.8 4.1
      vertex 74.8096 32.087 5.1
      vertex 74.8096 32.087 4.1
    endloop
  endfacet
  facet normal -0.994522 -0.10453 0
    outer loop
      vertex 74.8096 32.087 5.1
      vertex 75.05 29.8 4.1
      vertex 75.05 29.8 5.1
    endloop
  endfacet
  facet normal -1 0 0
    outer loop
      vertex 0.2 27.9886 2.0615
      vertex 0.2 28.2546 2.25251
      vertex 0.2 28.2546 2.0615
    endloop
  endfacet
  facet normal -1 -0 0
    outer loop
      vertex 0.2 28.2546 2.25251
      vertex 0.2 27.9886 2.0615
      vertex 0.2 27.9886 2.25251
    endloop
  endfacet
  facet normal -1 0 0
    outer loop
      vertex 0.2 28.2546 2.0615
      vertex 0.2 28.4836 2.0615
      vertex 0.2 28.4836 1.6125
    endloop
  endfacet
  facet normal -1 0 0
    outer loop
      vertex 0.2 28.4836 2.0615
      vertex 0.2 28.2546 2.0615
      vertex 0.2 28.4836 2.25251
    endloop
  endfacet
  facet normal -1 0 0
    outer loop
      vertex 0.2 28.2546 2.0615
      vertex 0.2 28.4836 1.6125
      vertex 0.2 28.2546 1.6125
    endloop
  endfacet
  facet normal -1 0 0
    outer loop
      vertex 0.2 29.3796 2.0615
      vertex 0.2 29.1566 2.25251
      vertex 0.2 29.3796 2.2505
    endloop
  endfacet
  facet normal -1 0 0
    outer loop
      vertex 0.2 28.4836 2.0615
      vertex 0.2 29.1566 2.25251
      vertex 0.2 29.3796 2.0615
    endloop
  endfacet
  facet normal -1 -0 0
    outer loop
      vertex 0.2 29.1566 2.25251
      vertex 0.2 28.4836 2.0615
      vertex 0.2 28.4836 2.25251
    endloop
  endfacet
  facet normal -1 0 0
    outer loop
      vertex 0.2 29.1346 2.27951
      vertex 0.2 29.3796 2.2505
      vertex 0.2 29.1566 2.25251
    endloop
  endfacet
  facet normal -1 0 0
    outer loop
      vertex 0.2 29.0616 2.37951
      vertex 0.2 29.3796 2.2505
      vertex 0.2 29.1346 2.27951
    endloop
  endfacet
  facet normal -1 0 0
    outer loop
      vertex 0.2 28.5746 3.0995
      vertex 0.2 29.3796 2.2505
      vertex 0.2 29.0616 2.37951
    endloop
  endfacet
  facet normal -1 0 0
    outer loop
      vertex 0.2 28.5096 3.5325
      vertex 0.2 28.5746 3.0995
      vertex 0.2 28.5523 3.13475
    endloop
  endfacet
  facet normal -1 0 0
    outer loop
      vertex 0.2 28.5746 3.0995
      vertex 0.2 28.5096 3.5325
      vertex 0.2 29.3796 2.2505
    endloop
  endfacet
  facet normal -1 0 0
    outer loop
      vertex 0.2 28.4836 3.26049
      vertex 0.2 28.5096 3.5325
      vertex 0.2 28.5523 3.13475
    endloop
  endfacet
  facet normal -1 -0 0
    outer loop
      vertex 0.2 28.4836 2.25251
      vertex 0.2 28.2546 2.0615
      vertex 0.2 28.2546 2.25251
    endloop
  endfacet
  facet normal -1 0 0
    outer loop
      vertex 0.2 28.4836 2.25251
      vertex 0.2 28.2546 2.25251
      vertex 0.2 28.4836 3.26049
    endloop
  endfacet
  facet normal -1 0 0
    outer loop
      vertex 0.2 28.2546 3.5325
      vertex 0.2 28.4836 3.26049
      vertex 0.2 28.2546 2.25251
    endloop
  endfacet
  facet normal -1 0 0
    outer loop
      vertex 0.2 28.4836 3.26049
      vertex 0.2 28.2546 3.5325
      vertex 0.2 28.5096 3.5325
    endloop
  endfacet
  facet normal -1 0 0
    outer loop
      vertex 0.2 30.4311 2.12451
      vertex 0.2 31.0451 3.08448
      vertex 0.2 30.4701 1.6125
    endloop
  endfacet
  facet normal -1 -0 0
    outer loop
      vertex 0.2 31.0451 3.08448
      vertex 0.2 30.4311 2.12451
      vertex 0.2 30.7871 3.08448
    endloop
  endfacet
  facet normal -1 0 0
    outer loop
      vertex 0.2 30.4701 1.6125
      vertex 0.2 30.3281 1.80151
      vertex 0.2 30.4311 2.12451
    endloop
  endfacet
  facet normal -1 0 0
    outer loop
      vertex 0.2 30.1841 1.6125
      vertex 0.2 30.2761 1.96151
      vertex 0.2 30.3281 1.80151
    endloop
  endfacet
  facet normal -1 0 0
    outer loop
      vertex 0.2 30.1841 1.6125
      vertex 0.2 30.3281 1.80151
      vertex 0.2 30.4701 1.6125
    endloop
  endfacet
  facet normal -1 -0 0
    outer loop
      vertex 0.2 30.2761 1.96151
      vertex 0.2 30.1841 1.6125
      vertex 0.2 30.2171 2.1215
    endloop
  endfacet
  facet normal -1 0 0
    outer loop
      vertex 0.2 29.5931 3.08448
      vertex 0.2 30.2171 2.1215
      vertex 0.2 30.1841 1.6125
    endloop
  endfacet
  facet normal -1 0 0
    outer loop
      vertex 0.2 30.2171 2.1215
      vertex 0.2 29.5931 3.08448
      vertex 0.2 29.8501 3.08448
    endloop
  endfacet
  facet normal -0 0 1
    outer loop
      vertex 0 29.3796 2.0615
      vertex 0.2 28.4836 2.0615
      vertex 0.2 29.3796 2.0615
    endloop
  endfacet
  facet normal 0 0 1
    outer loop
      vertex 0.2 28.4836 2.0615
      vertex 0 29.3796 2.0615
      vertex 0 28.4836 2.0615
    endloop
  endfacet
  facet normal 0 -1 0
    outer loop
      vertex 0 29.3796 2.0615
      vertex 0.2 29.3796 2.2505
      vertex 0 29.3796 2.2505
    endloop
  endfacet
  facet normal 0 -1 -0
    outer loop
      vertex 0.2 29.3796 2.2505
      vertex 0 29.3796 2.0615
      vertex 0.2 29.3796 2.0615
    endloop
  endfacet
  facet normal 0 -0.827451 -0.561538
    outer loop
      vertex 0 29.3796 2.2505
      vertex 0.2 28.5096 3.5325
      vertex 0 28.5096 3.5325
    endloop
  endfacet
  facet normal 0 -0.827451 -0.561538
    outer loop
      vertex 0.2 28.5096 3.5325
      vertex 0 29.3796 2.2505
      vertex 0.2 29.3796 2.2505
    endloop
  endfacet
  facet normal 0 0 -1
    outer loop
      vertex 0 28.2546 3.5325
      vertex 0.2 28.5096 3.5325
      vertex 0.2 28.2546 3.5325
    endloop
  endfacet
  facet normal -0 0 -1
    outer loop
      vertex 0.2 28.5096 3.5325
      vertex 0 28.2546 3.5325
      vertex 0 28.5096 3.5325
    endloop
  endfacet
  facet normal 0 1 -0
    outer loop
      vertex 0.2 28.2546 2.25251
      vertex 0 28.2546 3.5325
      vertex 0.2 28.2546 3.5325
    endloop
  endfacet
  facet normal 0 1 0
    outer loop
      vertex 0 28.2546 3.5325
      vertex 0.2 28.2546 2.25251
      vertex 0 28.2546 2.25251
    endloop
  endfacet
  facet normal 0 0 -1
    outer loop
      vertex 0 27.9886 2.25251
      vertex 0.2 28.2546 2.25251
      vertex 0.2 27.9886 2.25251
    endloop
  endfacet
  facet normal -0 0 -1
    outer loop
      vertex 0.2 28.2546 2.25251
      vertex 0 27.9886 2.25251
      vertex 0 28.2546 2.25251
    endloop
  endfacet
  facet normal 0 1 -0
    outer loop
      vertex 0.2 27.9886 2.0615
      vertex 0 27.9886 2.25251
      vertex 0.2 27.9886 2.25251
    endloop
  endfacet
  facet normal 0 1 0
    outer loop
      vertex 0 27.9886 2.25251
      vertex 0.2 27.9886 2.0615
      vertex 0 27.9886 2.0615
    endloop
  endfacet
  facet normal -0 0 1
    outer loop
      vertex 0 28.2546 2.0615
      vertex 0.2 27.9886 2.0615
      vertex 0.2 28.2546 2.0615
    endloop
  endfacet
  facet normal 0 0 1
    outer loop
      vertex 0.2 27.9886 2.0615
      vertex 0 28.2546 2.0615
      vertex 0 27.9886 2.0615
    endloop
  endfacet
  facet normal 0 1 -0
    outer loop
      vertex 0.2 28.2546 1.6125
      vertex 0 28.2546 2.0615
      vertex 0.2 28.2546 2.0615
    endloop
  endfacet
  facet normal 0 1 0
    outer loop
      vertex 0 28.2546 2.0615
      vertex 0.2 28.2546 1.6125
      vertex 0 28.2546 1.6125
    endloop
  endfacet
  facet normal -0 0 1
    outer loop
      vertex 0 28.4836 1.6125
      vertex 0.2 28.2546 1.6125
      vertex 0.2 28.4836 1.6125
    endloop
  endfacet
  facet normal 0 0 1
    outer loop
      vertex 0.2 28.2546 1.6125
      vertex 0 28.4836 1.6125
      vertex 0 28.2546 1.6125
    endloop
  endfacet
  facet normal 0 -1 0
    outer loop
      vertex 0 28.4836 1.6125
      vertex 0.2 28.4836 2.0615
      vertex 0 28.4836 2.0615
    endloop
  endfacet
  facet normal 0 -1 -0
    outer loop
      vertex 0.2 28.4836 2.0615
      vertex 0 28.4836 1.6125
      vertex 0.2 28.4836 1.6125
    endloop
  endfacet
  facet normal 0 -1 0
    outer loop
      vertex 0 28.4836 2.25251
      vertex 0.2 28.4836 3.26049
      vertex 0 28.4836 3.26049
    endloop
  endfacet
  facet normal 0 -1 -0
    outer loop
      vertex 0.2 28.4836 3.26049
      vertex 0 28.4836 2.25251
      vertex 0.2 28.4836 2.25251
    endloop
  endfacet
  facet normal 0 0.877407 0.479747
    outer loop
      vertex 0.2 28.5523 3.13475
      vertex 0 28.4836 3.26049
      vertex 0.2 28.4836 3.26049
    endloop
  endfacet
  facet normal 0 0.877407 0.479747
    outer loop
      vertex 0 28.4836 3.26049
      vertex 0.2 28.5523 3.13475
      vertex 0 28.5523 3.13475
    endloop
  endfacet
  facet normal 0 0.845645 0.533745
    outer loop
      vertex 0.2 28.5746 3.0995
      vertex 0 28.5523 3.13475
      vertex 0.2 28.5523 3.13475
    endloop
  endfacet
  facet normal 0 0.845645 0.533745
    outer loop
      vertex 0 28.5523 3.13475
      vertex 0.2 28.5746 3.0995
      vertex 0 28.5746 3.0995
    endloop
  endfacet
  facet normal 0 0.82831 0.56027
    outer loop
      vertex 0.2 29.0616 2.37951
      vertex 0 28.5746 3.0995
      vertex 0.2 28.5746 3.0995
    endloop
  endfacet
  facet normal 0 0.82831 0.56027
    outer loop
      vertex 0 28.5746 3.0995
      vertex 0.2 29.0616 2.37951
      vertex 0 29.0616 2.37951
    endloop
  endfacet
  facet normal 0 0.807712 0.589578
    outer loop
      vertex 0.2 29.1346 2.27951
      vertex 0 29.0616 2.37951
      vertex 0.2 29.0616 2.37951
    endloop
  endfacet
  facet normal 0 0.807712 0.589578
    outer loop
      vertex 0 29.0616 2.37951
      vertex 0.2 29.1346 2.27951
      vertex 0 29.1346 2.27951
    endloop
  endfacet
  facet normal 0 0.775108 0.631829
    outer loop
      vertex 0.2 29.1566 2.25251
      vertex 0 29.1346 2.27951
      vertex 0.2 29.1346 2.27951
    endloop
  endfacet
  facet normal 0 0.775108 0.631829
    outer loop
      vertex 0 29.1346 2.27951
      vertex 0.2 29.1566 2.25251
      vertex 0 29.1566 2.25251
    endloop
  endfacet
  facet normal 0 0 -1
    outer loop
      vertex 0 28.4836 2.25251
      vertex 0.2 29.1566 2.25251
      vertex 0.2 28.4836 2.25251
    endloop
  endfacet
  facet normal -0 0 -1
    outer loop
      vertex 0.2 29.1566 2.25251
      vertex 0 28.4836 2.25251
      vertex 0 29.1566 2.25251
    endloop
  endfacet
  facet normal 0 0 -1
    outer loop
      vertex 0 30.7871 3.08448
      vertex 0.2 31.0451 3.08448
      vertex 0.2 30.7871 3.08448
    endloop
  endfacet
  facet normal -0 0 -1
    outer loop
      vertex 0.2 31.0451 3.08448
      vertex 0 30.7871 3.08448
      vertex 0 31.0451 3.08448
    endloop
  endfacet
  facet normal 0 0.937604 -0.347706
    outer loop
      vertex 0.2 30.4311 2.12451
      vertex 0 30.7871 3.08448
      vertex 0.2 30.7871 3.08448
    endloop
  endfacet
  facet normal 0 0.937604 -0.347706
    outer loop
      vertex 0 30.7871 3.08448
      vertex 0.2 30.4311 2.12451
      vertex 0 30.4311 2.12451
    endloop
  endfacet
  facet normal 0 0.952734 -0.303806
    outer loop
      vertex 0.2 30.3281 1.80151
      vertex 0 30.4311 2.12451
      vertex 0.2 30.4311 2.12451
    endloop
  endfacet
  facet normal 0 0.952734 -0.303806
    outer loop
      vertex 0 30.4311 2.12451
      vertex 0.2 30.3281 1.80151
      vertex 0 30.3281 1.80151
    endloop
  endfacet
  facet normal 0 -0.951033 -0.30909
    outer loop
      vertex 0 30.3281 1.80151
      vertex 0.2 30.2761 1.96151
      vertex 0 30.2761 1.96151
    endloop
  endfacet
  facet normal 0 -0.951033 -0.30909
    outer loop
      vertex 0.2 30.2761 1.96151
      vertex 0 30.3281 1.80151
      vertex 0.2 30.3281 1.80151
    endloop
  endfacet
  facet normal 0 -0.938224 -0.346029
    outer loop
      vertex 0 30.2761 1.96151
      vertex 0.2 30.2171 2.1215
      vertex 0 30.2171 2.1215
    endloop
  endfacet
  facet normal 0 -0.938224 -0.346029
    outer loop
      vertex 0.2 30.2171 2.1215
      vertex 0 30.2761 1.96151
      vertex 0.2 30.2761 1.96151
    endloop
  endfacet
  facet normal 0 -0.934438 -0.356126
    outer loop
      vertex 0 30.2171 2.1215
      vertex 0.2 29.8501 3.08448
      vertex 0 29.8501 3.08448
    endloop
  endfacet
  facet normal 0 -0.934438 -0.356126
    outer loop
      vertex 0.2 29.8501 3.08448
      vertex 0 30.2171 2.1215
      vertex 0.2 30.2171 2.1215
    endloop
  endfacet
  facet normal 0 0 -1
    outer loop
      vertex 0 29.5931 3.08448
      vertex 0.2 29.8501 3.08448
      vertex 0.2 29.5931 3.08448
    endloop
  endfacet
  facet normal -0 0 -1
    outer loop
      vertex 0.2 29.8501 3.08448
      vertex 0 29.5931 3.08448
      vertex 0 29.8501 3.08448
    endloop
  endfacet
  facet normal 0 0.928002 0.372575
    outer loop
      vertex 0.2 30.1841 1.6125
      vertex 0 29.5931 3.08448
      vertex 0.2 29.5931 3.08448
    endloop
  endfacet
  facet normal 0 0.928002 0.372575
    outer loop
      vertex 0 29.5931 3.08448
      vertex 0.2 30.1841 1.6125
      vertex 0 30.1841 1.6125
    endloop
  endfacet
  facet normal -0 0 1
    outer loop
      vertex 0 30.4701 1.6125
      vertex 0.2 30.1841 1.6125
      vertex 0.2 30.4701 1.6125
    endloop
  endfacet
  facet normal 0 0 1
    outer loop
      vertex 0.2 30.1841 1.6125
      vertex 0 30.4701 1.6125
      vertex 0 30.1841 1.6125
    endloop
  endfacet
  facet normal 0 -0.931457 0.363852
    outer loop
      vertex 0 30.4701 1.6125
      vertex 0.2 31.0451 3.08448
      vertex 0 31.0451 3.08448
    endloop
  endfacet
  facet normal 0 -0.931457 0.363852
    outer loop
      vertex 0.2 31.0451 3.08448
      vertex 0 30.4701 1.6125
      vertex 0.2 30.4701 1.6125
    endloop
  endfacet
  facet normal 0 0 -1
    outer loop
      vertex 87.1 0 -4
      vertex 84.6 27.1 -4
      vertex 87.1 59.6 -4
    endloop
  endfacet
  facet normal 0 0 -1
    outer loop
      vertex 84.2866 16.0021 -4
      vertex 87.1 0 -4
      vertex 84.4 14.03 -4
    endloop
  endfacet
  facet normal 0 0 -1
    outer loop
      vertex 87.1 0 -4
      vertex 84.2866 12.0579 -4
      vertex 84.4 14.03 -4
    endloop
  endfacet
  facet normal 0 0 -1
    outer loop
      vertex 87.1 0 -4
      vertex 83.9555 10.2455 -4
      vertex 84.2866 12.0579 -4
    endloop
  endfacet
  facet normal 0 0 -1
    outer loop
      vertex 87.1 0 -4
      vertex 83.4336 8.73975 -4
      vertex 83.9555 10.2455 -4
    endloop
  endfacet
  facet normal 0 0 -1
    outer loop
      vertex 87.1 0 -4
      vertex 82.7632 7.66258 -4
      vertex 83.4336 8.73975 -4
    endloop
  endfacet
  facet normal 0 0 -1
    outer loop
      vertex 87.1 0 -4
      vertex 81.9985 7.10125 -4
      vertex 82.7632 7.66258 -4
    endloop
  endfacet
  facet normal 0 0 -1
    outer loop
      vertex 87.1 0 -4
      vertex 68.4038 7.10125 -4
      vertex 81.9985 7.10125 -4
    endloop
  endfacet
  facet normal 0 0 -1
    outer loop
      vertex 0 0 -4
      vertex 68.4038 7.10125 -4
      vertex 87.1 0 -4
    endloop
  endfacet
  facet normal 0 0 -1
    outer loop
      vertex 62.6835 12.0579 -4
      vertex 42.5 20.1 -4
      vertex 62.4 14.03 -4
    endloop
  endfacet
  facet normal 0 0 -1
    outer loop
      vertex 63.5112 10.2455 -4
      vertex 42.5 20.1 -4
      vertex 62.6835 12.0579 -4
    endloop
  endfacet
  facet normal 0 0 -1
    outer loop
      vertex 64.816 8.73975 -4
      vertex 42.5 20.1 -4
      vertex 63.5112 10.2455 -4
    endloop
  endfacet
  facet normal 0 0 -1
    outer loop
      vertex 0 0 -4
      vertex 64.816 8.73975 -4
      vertex 66.4921 7.66258 -4
    endloop
  endfacet
  facet normal -0 0 -1
    outer loop
      vertex 64.816 8.73975 -4
      vertex 0 0 -4
      vertex 42.5 20.1 -4
    endloop
  endfacet
  facet normal -0 0 -1
    outer loop
      vertex 68.4038 7.10125 -4
      vertex 0 0 -4
      vertex 66.4921 7.66258 -4
    endloop
  endfacet
  facet normal -0 0 -1
    outer loop
      vertex 2.5 20.1 -4
      vertex 0 0 -4
      vertex 2.5 27.1 -4
    endloop
  endfacet
  facet normal -0 0 -1
    outer loop
      vertex 42.5 20.1 -4
      vertex 0 0 -4
      vertex 2.5 20.1 -4
    endloop
  endfacet
  facet normal 0 0 -1
    outer loop
      vertex 84.6 57.1 -4
      vertex 87.1 59.6 -4
      vertex 84.6 27.1 -4
    endloop
  endfacet
  facet normal 0 0 -1
    outer loop
      vertex 41.5 57.1 -4
      vertex 87.1 59.6 -4
      vertex 84.6 57.1 -4
    endloop
  endfacet
  facet normal 0 0 -1
    outer loop
      vertex 0 59.6 -4
      vertex 40.8444 50.8626 -4
      vertex 38.9064 44.8979 -4
    endloop
  endfacet
  facet normal 0 0 -1
    outer loop
      vertex 0 59.6 -4
      vertex 38.9064 44.8979 -4
      vertex 35.7705 39.4664 -4
    endloop
  endfacet
  facet normal 0 0 -1
    outer loop
      vertex 0 59.6 -4
      vertex 35.7705 39.4664 -4
      vertex 31.5739 34.8057 -4
    endloop
  endfacet
  facet normal 0 0 -1
    outer loop
      vertex 0 59.6 -4
      vertex 31.5739 34.8057 -4
      vertex 26.5 31.1192 -4
    endloop
  endfacet
  facet normal 0 0 -1
    outer loop
      vertex 0 59.6 -4
      vertex 26.5 31.1192 -4
      vertex 20.7705 28.5683 -4
    endloop
  endfacet
  facet normal 0 0 -1
    outer loop
      vertex 0 59.6 -4
      vertex 20.7705 28.5683 -4
      vertex 14.6359 27.2643 -4
    endloop
  endfacet
  facet normal 0 0 -1
    outer loop
      vertex 0 59.6 -4
      vertex 14.6359 27.2643 -4
      vertex 3.5 27.1 -4
    endloop
  endfacet
  facet normal 0 0 -1
    outer loop
      vertex 0 59.6 -4
      vertex 3.5 27.1 -4
      vertex 2.5 27.1 -4
    endloop
  endfacet
  facet normal 0 0 -1
    outer loop
      vertex 41.5 57.1 -4
      vertex 0 59.6 -4
      vertex 87.1 59.6 -4
    endloop
  endfacet
  facet normal 0 0 -1
    outer loop
      vertex 40.8444 50.8626 -4
      vertex 0 59.6 -4
      vertex 41.5 57.1 -4
    endloop
  endfacet
  facet normal 0 0 -1
    outer loop
      vertex 0 59.6 -4
      vertex 2.5 27.1 -4
      vertex 0 0 -4
    endloop
  endfacet
  facet normal 0 0 -1
    outer loop
      vertex 87.1 0 -4
      vertex 84.2866 16.0021 -4
      vertex 84.6 27.1 -4
    endloop
  endfacet
  facet normal 0 0 -1
    outer loop
      vertex 83.9555 17.8145 -4
      vertex 84.6 27.1 -4
      vertex 84.2866 16.0021 -4
    endloop
  endfacet
  facet normal 0 0 -1
    outer loop
      vertex 83.4336 19.3202 -4
      vertex 84.6 27.1 -4
      vertex 83.9555 17.8145 -4
    endloop
  endfacet
  facet normal 0 0 -1
    outer loop
      vertex 82.7632 20.3974 -4
      vertex 84.6 27.1 -4
      vertex 83.4336 19.3202 -4
    endloop
  endfacet
  facet normal 0 0 -1
    outer loop
      vertex 81.9985 20.9587 -4
      vertex 84.6 27.1 -4
      vertex 82.7632 20.3974 -4
    endloop
  endfacet
  facet normal 0 0 -1
    outer loop
      vertex 81.9985 20.9587 -4
      vertex 77.5 27.1 -4
      vertex 84.6 27.1 -4
    endloop
  endfacet
  facet normal 0 0 -1
    outer loop
      vertex 68.4038 20.9587 -4
      vertex 77.5 27.1 -4
      vertex 81.9985 20.9587 -4
    endloop
  endfacet
  facet normal 0 0 -1
    outer loop
      vertex 66.4921 20.3974 -4
      vertex 77.5 27.1 -4
      vertex 68.4038 20.9587 -4
    endloop
  endfacet
  facet normal -0 0 -1
    outer loop
      vertex 66.4921 20.3974 -4
      vertex 42.5 20.1 -4
      vertex 77.5 27.1 -4
    endloop
  endfacet
  facet normal 0 0 -1
    outer loop
      vertex 64.816 19.3202 -4
      vertex 42.5 20.1 -4
      vertex 66.4921 20.3974 -4
    endloop
  endfacet
  facet normal 0 0 -1
    outer loop
      vertex 63.5112 17.8145 -4
      vertex 42.5 20.1 -4
      vertex 64.816 19.3202 -4
    endloop
  endfacet
  facet normal 0 0 -1
    outer loop
      vertex 62.6835 16.0021 -4
      vertex 42.5 20.1 -4
      vertex 63.5112 17.8145 -4
    endloop
  endfacet
  facet normal 0 0 -1
    outer loop
      vertex 42.5 20.1 -4
      vertex 62.6835 16.0021 -4
      vertex 62.4 14.03 -4
    endloop
  endfacet
  facet normal 0 1 -0
    outer loop
      vertex 84.6 27.1 -4
      vertex 77.5 27.1 0
      vertex 84.6 27.1 0
    endloop
  endfacet
  facet normal 0 1 0
    outer loop
      vertex 77.5 27.1 0
      vertex 84.6 27.1 -4
      vertex 77.5 27.1 -4
    endloop
  endfacet
  facet normal -1 0 0
    outer loop
      vertex 84.6 27.1 -4
      vertex 84.6 57.1 0
      vertex 84.6 57.1 -4
    endloop
  endfacet
  facet normal -1 -0 0
    outer loop
      vertex 84.6 57.1 0
      vertex 84.6 27.1 -4
      vertex 84.6 27.1 0
    endloop
  endfacet
  facet normal 0 -1 0
    outer loop
      vertex 41.5 57.1 -3
      vertex 2.5 57.1 0
      vertex 2.5 57.1 -3
    endloop
  endfacet
  facet normal 0 -1 0
    outer loop
      vertex 2.5 57.1 0
      vertex 41.5 57.1 -3
      vertex 84.6 57.1 0
    endloop
  endfacet
  facet normal 0 -1 0
    outer loop
      vertex 84.6 57.1 -4
      vertex 41.5 57.1 -3
      vertex 41.5 57.1 -4
    endloop
  endfacet
  facet normal 0 -1 0
    outer loop
      vertex 41.5 57.1 -3
      vertex 84.6 57.1 -4
      vertex 84.6 57.1 0
    endloop
  endfacet
  facet normal 1 0 0
    outer loop
      vertex 2.5 57.1 0
      vertex 2.5 27.1 -3
      vertex 2.5 57.1 -3
    endloop
  endfacet
  facet normal 1 -0 0
    outer loop
      vertex 2.5 20.1 0
      vertex 2.5 27.1 -3
      vertex 2.5 57.1 0
    endloop
  endfacet
  facet normal 1 0 0
    outer loop
      vertex 2.5 20.1 -4
      vertex 2.5 27.1 -3
      vertex 2.5 20.1 0
    endloop
  endfacet
  facet normal 1 0 0
    outer loop
      vertex 2.5 27.1 -3
      vertex 2.5 20.1 -4
      vertex 2.5 27.1 -4
    endloop
  endfacet
  facet normal 0 1 -0
    outer loop
      vertex 42.5 20.1 -4
      vertex 2.5 20.1 0
      vertex 42.5 20.1 0
    endloop
  endfacet
  facet normal 0 1 0
    outer loop
      vertex 2.5 20.1 0
      vertex 42.5 20.1 -4
      vertex 2.5 20.1 -4
    endloop
  endfacet
  facet normal -0.196116 0.980581 0
    outer loop
      vertex 77.5 27.1 -4
      vertex 42.5 20.1 0
      vertex 77.5 27.1 0
    endloop
  endfacet
  facet normal -0.196116 0.980581 0
    outer loop
      vertex 42.5 20.1 0
      vertex 77.5 27.1 -4
      vertex 42.5 20.1 -4
    endloop
  endfacet
  facet normal 0.994522 -0.104528 0
    outer loop
      vertex 40.8444 50.8626 -3
      vertex 41.5 57.1 -4
      vertex 41.5 57.1 -3
    endloop
  endfacet
  facet normal 0.994522 -0.104528 0
    outer loop
      vertex 41.5 57.1 -4
      vertex 40.8444 50.8626 -3
      vertex 40.8444 50.8626 -4
    endloop
  endfacet
  facet normal 0.951057 -0.309017 0
    outer loop
      vertex 38.9064 44.8979 -3
      vertex 40.8444 50.8626 -4
      vertex 40.8444 50.8626 -3
    endloop
  endfacet
  facet normal 0.951057 -0.309017 0
    outer loop
      vertex 40.8444 50.8626 -4
      vertex 38.9064 44.8979 -3
      vertex 38.9064 44.8979 -4
    endloop
  endfacet
  facet normal 0.406737 -0.913545 0
    outer loop
      vertex 20.7705 28.5683 -4
      vertex 26.5 31.1192 -3
      vertex 20.7705 28.5683 -3
    endloop
  endfacet
  facet normal 0.406737 -0.913545 0
    outer loop
      vertex 26.5 31.1192 -3
      vertex 20.7705 28.5683 -4
      vertex 26.5 31.1192 -4
    endloop
  endfacet
  facet normal 0.587785 -0.809017 0
    outer loop
      vertex 26.5 31.1192 -4
      vertex 31.5739 34.8057 -3
      vertex 26.5 31.1192 -3
    endloop
  endfacet
  facet normal 0.587785 -0.809017 0
    outer loop
      vertex 31.5739 34.8057 -3
      vertex 26.5 31.1192 -4
      vertex 31.5739 34.8057 -4
    endloop
  endfacet
  facet normal -0 0 1
    outer loop
      vertex 2.5 57.1 -3
      vertex 40.8444 50.8626 -3
      vertex 41.5 57.1 -3
    endloop
  endfacet
  facet normal 0 0 1
    outer loop
      vertex 40.8444 50.8626 -3
      vertex 2.5 57.1 -3
      vertex 38.9064 44.8979 -3
    endloop
  endfacet
  facet normal 0 0 1
    outer loop
      vertex 38.9064 44.8979 -3
      vertex 2.5 57.1 -3
      vertex 35.7705 39.4664 -3
    endloop
  endfacet
  facet normal 0 0 1
    outer loop
      vertex 35.7705 39.4664 -3
      vertex 2.5 57.1 -3
      vertex 31.5739 34.8057 -3
    endloop
  endfacet
  facet normal 0 0 1
    outer loop
      vertex 31.5739 34.8057 -3
      vertex 2.5 57.1 -3
      vertex 26.5 31.1192 -3
    endloop
  endfacet
  facet normal 0 0 1
    outer loop
      vertex 26.5 31.1192 -3
      vertex 2.5 57.1 -3
      vertex 20.7705 28.5683 -3
    endloop
  endfacet
  facet normal 0 0 1
    outer loop
      vertex 20.7705 28.5683 -3
      vertex 2.5 57.1 -3
      vertex 14.6359 27.2643 -3
    endloop
  endfacet
  facet normal 0 0 1
    outer loop
      vertex 14.6359 27.2643 -3
      vertex 2.5 57.1 -3
      vertex 3.5 27.1 -3
    endloop
  endfacet
  facet normal 0 0 1
    outer loop
      vertex 3.5 27.1 -3
      vertex 2.5 57.1 -3
      vertex 2.5 27.1 -3
    endloop
  endfacet
  facet normal 0.866025 -0.5 0
    outer loop
      vertex 35.7705 39.4664 -3
      vertex 38.9064 44.8979 -4
      vertex 38.9064 44.8979 -3
    endloop
  endfacet
  facet normal 0.866025 -0.5 0
    outer loop
      vertex 38.9064 44.8979 -4
      vertex 35.7705 39.4664 -3
      vertex 35.7705 39.4664 -4
    endloop
  endfacet
  facet normal 0.207912 -0.978148 0
    outer loop
      vertex 14.6359 27.2643 -4
      vertex 20.7705 28.5683 -3
      vertex 14.6359 27.2643 -3
    endloop
  endfacet
  facet normal 0.207912 -0.978148 0
    outer loop
      vertex 20.7705 28.5683 -3
      vertex 14.6359 27.2643 -4
      vertex 20.7705 28.5683 -4
    endloop
  endfacet
  facet normal 0 -1 0
    outer loop
      vertex 2.5 27.1 -4
      vertex 3.5 27.1 -3
      vertex 2.5 27.1 -3
    endloop
  endfacet
  facet normal 0 -1 -0
    outer loop
      vertex 3.5 27.1 -3
      vertex 2.5 27.1 -4
      vertex 3.5 27.1 -4
    endloop
  endfacet
  facet normal 0.743145 -0.669131 0
    outer loop
      vertex 31.5739 34.8057 -3
      vertex 35.7705 39.4664 -4
      vertex 35.7705 39.4664 -3
    endloop
  endfacet
  facet normal 0.743145 -0.669131 0
    outer loop
      vertex 35.7705 39.4664 -4
      vertex 31.5739 34.8057 -3
      vertex 31.5739 34.8057 -4
    endloop
  endfacet
  facet normal 0.0147564 -0.999891 0
    outer loop
      vertex 3.5 27.1 -4
      vertex 14.6359 27.2643 -3
      vertex 3.5 27.1 -3
    endloop
  endfacet
  facet normal 0.0147564 -0.999891 0
    outer loop
      vertex 14.6359 27.2643 -3
      vertex 3.5 27.1 -4
      vertex 14.6359 27.2643 -4
    endloop
  endfacet
  facet normal -0.99835 0.0574159 0
    outer loop
      vertex 84.2866 12.0579 -4
      vertex 84.4 14.03 -3
      vertex 84.4 14.03 -4
    endloop
  endfacet
  facet normal -0.99835 0.0574159 0
    outer loop
      vertex 84.4 14.03 -3
      vertex 84.2866 12.0579 -4
      vertex 84.2866 12.0579 -3
    endloop
  endfacet
  facet normal -0.944856 0.327487 0
    outer loop
      vertex 83.4336 8.73975 -4
      vertex 83.9555 10.2455 -3
      vertex 83.9555 10.2455 -4
    endloop
  endfacet
  facet normal -0.944856 0.327487 0
    outer loop
      vertex 83.9555 10.2455 -3
      vertex 83.4336 8.73975 -4
      vertex 83.4336 8.73975 -3
    endloop
  endfacet
  facet normal 0.989822 0.142313 0
    outer loop
      vertex 62.6835 12.0579 -3
      vertex 62.4 14.03 -4
      vertex 62.4 14.03 -3
    endloop
  endfacet
  facet normal 0.989822 0.142313 0
    outer loop
      vertex 62.4 14.03 -4
      vertex 62.6835 12.0579 -3
      vertex 62.6835 12.0579 -4
    endloop
  endfacet
  facet normal 0.75575 -0.65486 0
    outer loop
      vertex 63.5112 17.8145 -3
      vertex 64.816 19.3202 -4
      vertex 64.816 19.3202 -3
    endloop
  endfacet
  facet normal 0.75575 -0.65486 0
    outer loop
      vertex 64.816 19.3202 -4
      vertex 63.5112 17.8145 -3
      vertex 63.5112 17.8145 -4
    endloop
  endfacet
  facet normal 0 -1 0
    outer loop
      vertex 68.4038 20.9587 -4
      vertex 81.9985 20.9587 -3
      vertex 68.4038 20.9587 -3
    endloop
  endfacet
  facet normal 0 -1 -0
    outer loop
      vertex 81.9985 20.9587 -3
      vertex 68.4038 20.9587 -4
      vertex 81.9985 20.9587 -4
    endloop
  endfacet
  facet normal -0.983721 0.179704 0
    outer loop
      vertex 83.9555 10.2455 -4
      vertex 84.2866 12.0579 -3
      vertex 84.2866 12.0579 -4
    endloop
  endfacet
  facet normal -0.983721 0.179704 0
    outer loop
      vertex 84.2866 12.0579 -3
      vertex 83.9555 10.2455 -4
      vertex 83.9555 10.2455 -3
    endloop
  endfacet
  facet normal 0 1 -0
    outer loop
      vertex 81.9985 7.10125 -4
      vertex 68.4038 7.10125 -3
      vertex 81.9985 7.10125 -3
    endloop
  endfacet
  facet normal 0 1 0
    outer loop
      vertex 68.4038 7.10125 -3
      vertex 81.9985 7.10125 -4
      vertex 68.4038 7.10125 -4
    endloop
  endfacet
  facet normal 0.54064 0.841254 -0
    outer loop
      vertex 66.4921 7.66258 -4
      vertex 64.816 8.73975 -3
      vertex 66.4921 7.66258 -3
    endloop
  endfacet
  facet normal 0.54064 0.841254 0
    outer loop
      vertex 64.816 8.73975 -3
      vertex 66.4921 7.66258 -4
      vertex 64.816 8.73975 -4
    endloop
  endfacet
  facet normal 0.909632 0.415414 0
    outer loop
      vertex 63.5112 10.2455 -3
      vertex 62.6835 12.0579 -4
      vertex 62.6835 12.0579 -3
    endloop
  endfacet
  facet normal 0.909632 0.415414 0
    outer loop
      vertex 62.6835 12.0579 -4
      vertex 63.5112 10.2455 -3
      vertex 63.5112 10.2455 -4
    endloop
  endfacet
  facet normal -0 0 1
    outer loop
      vertex 29.32 17.81 -3
      vertex 56.42 10.25 -3
      vertex 56.42 17.81 -3
    endloop
  endfacet
  facet normal 0 0 1
    outer loop
      vertex 56.42 10.25 -3
      vertex 29.32 17.81 -3
      vertex 29.32 10.25 -3
    endloop
  endfacet
  facet normal 0 0 1
    outer loop
      vertex 82.7632 20.3974 -3
      vertex 87.1 27.06 -3
      vertex 86.6 27.06 -3
    endloop
  endfacet
  facet normal 0 0 1
    outer loop
      vertex 87.1 27.06 -3
      vertex 84.4 14.03 -3
      vertex 87.1 1 -3
    endloop
  endfacet
  facet normal -0 0 1
    outer loop
      vertex 84.2866 12.0579 -3
      vertex 87.1 1 -3
      vertex 84.4 14.03 -3
    endloop
  endfacet
  facet normal 0 0 1
    outer loop
      vertex 87.1 27.06 -3
      vertex 84.2866 16.0021 -3
      vertex 84.4 14.03 -3
    endloop
  endfacet
  facet normal 0 0 1
    outer loop
      vertex 87.1 27.06 -3
      vertex 83.9555 17.8145 -3
      vertex 84.2866 16.0021 -3
    endloop
  endfacet
  facet normal 0 0 1
    outer loop
      vertex 87.1 27.06 -3
      vertex 83.4336 19.3202 -3
      vertex 83.9555 17.8145 -3
    endloop
  endfacet
  facet normal 0 0 1
    outer loop
      vertex 87.1 27.06 -3
      vertex 82.7632 20.3974 -3
      vertex 83.4336 19.3202 -3
    endloop
  endfacet
  facet normal 0 0 1
    outer loop
      vertex 86.6 27.06 -3
      vertex 81.9985 20.9587 -3
      vertex 82.7632 20.3974 -3
    endloop
  endfacet
  facet normal 0 0 1
    outer loop
      vertex 86.6 27.06 -3
      vertex 68.4038 20.9587 -3
      vertex 81.9985 20.9587 -3
    endloop
  endfacet
  facet normal 0 0 1
    outer loop
      vertex 56.42 20.61 -3
      vertex 68.4038 20.9587 -3
      vertex 86.6 27.06 -3
    endloop
  endfacet
  facet normal 0 0 1
    outer loop
      vertex 63.5112 17.8145 -3
      vertex 56.42 17.81 -3
      vertex 62.6835 16.0021 -3
    endloop
  endfacet
  facet normal 0 0 1
    outer loop
      vertex 56.42 17.81 -3
      vertex 63.5112 17.8145 -3
      vertex 56.42 20.61 -3
    endloop
  endfacet
  facet normal 0 0 1
    outer loop
      vertex 64.816 19.3202 -3
      vertex 56.42 20.61 -3
      vertex 63.5112 17.8145 -3
    endloop
  endfacet
  facet normal 0 0 1
    outer loop
      vertex 66.4921 20.3974 -3
      vertex 56.42 20.61 -3
      vertex 64.816 19.3202 -3
    endloop
  endfacet
  facet normal 0 0 1
    outer loop
      vertex 68.4038 20.9587 -3
      vertex 56.42 20.61 -3
      vertex 66.4921 20.3974 -3
    endloop
  endfacet
  facet normal -0 0 1
    outer loop
      vertex 83.9555 10.2455 -3
      vertex 87.1 1 -3
      vertex 84.2866 12.0579 -3
    endloop
  endfacet
  facet normal -0 0 1
    outer loop
      vertex 83.4336 8.73975 -3
      vertex 87.1 1 -3
      vertex 83.9555 10.2455 -3
    endloop
  endfacet
  facet normal -0 0 1
    outer loop
      vertex 82.7632 7.66258 -3
      vertex 87.1 1 -3
      vertex 83.4336 8.73975 -3
    endloop
  endfacet
  facet normal 0 0 1
    outer loop
      vertex 87.1 1 -3
      vertex 82.7632 7.66258 -3
      vertex 86.6 1 -3
    endloop
  endfacet
  facet normal -0 0 1
    outer loop
      vertex 81.9985 7.10125 -3
      vertex 86.6 1 -3
      vertex 82.7632 7.66258 -3
    endloop
  endfacet
  facet normal -0 0 1
    outer loop
      vertex 68.4038 7.10125 -3
      vertex 86.6 1 -3
      vertex 81.9985 7.10125 -3
    endloop
  endfacet
  facet normal -0 0 1
    outer loop
      vertex 56.42 7.45001 -3
      vertex 68.4038 7.10125 -3
      vertex 66.4921 7.66258 -3
    endloop
  endfacet
  facet normal 0 0 1
    outer loop
      vertex 62.6835 16.0021 -3
      vertex 56.42 17.81 -3
      vertex 62.4 14.03 -3
    endloop
  endfacet
  facet normal 0 0 1
    outer loop
      vertex 56.42 10.25 -3
      vertex 62.4 14.03 -3
      vertex 56.42 17.81 -3
    endloop
  endfacet
  facet normal 0 0 1
    outer loop
      vertex 62.4 14.03 -3
      vertex 56.42 10.25 -3
      vertex 62.6835 12.0579 -3
    endloop
  endfacet
  facet normal 0 0 1
    outer loop
      vertex 62.6835 12.0579 -3
      vertex 56.42 10.25 -3
      vertex 63.5112 10.2455 -3
    endloop
  endfacet
  facet normal 0 0 1
    outer loop
      vertex 56.42 7.45001 -3
      vertex 63.5112 10.2455 -3
      vertex 56.42 10.25 -3
    endloop
  endfacet
  facet normal 0 0 1
    outer loop
      vertex 63.5112 10.2455 -3
      vertex 56.42 7.45001 -3
      vertex 64.816 8.73975 -3
    endloop
  endfacet
  facet normal 0 0 1
    outer loop
      vertex 64.816 8.73975 -3
      vertex 56.42 7.45001 -3
      vertex 66.4921 7.66258 -3
    endloop
  endfacet
  facet normal 0 0 1
    outer loop
      vertex 68.4038 7.10125 -3
      vertex 56.42 7.45001 -3
      vertex 86.6 1 -3
    endloop
  endfacet
  facet normal 0.281733 -0.959493 0
    outer loop
      vertex 66.4921 20.3974 -4
      vertex 68.4038 20.9587 -3
      vertex 66.4921 20.3974 -3
    endloop
  endfacet
  facet normal 0.281733 -0.959493 0
    outer loop
      vertex 68.4038 20.9587 -3
      vertex 66.4921 20.3974 -4
      vertex 68.4038 20.9587 -4
    endloop
  endfacet
  facet normal -0.983721 -0.179704 0
    outer loop
      vertex 84.2866 16.0021 -4
      vertex 83.9555 17.8145 -3
      vertex 83.9555 17.8145 -4
    endloop
  endfacet
  facet normal -0.983721 -0.179704 0
    outer loop
      vertex 83.9555 17.8145 -3
      vertex 84.2866 16.0021 -4
      vertex 84.2866 16.0021 -3
    endloop
  endfacet
  facet normal -0.591749 -0.806122 0
    outer loop
      vertex 81.9985 20.9587 -4
      vertex 82.7632 20.3974 -3
      vertex 81.9985 20.9587 -3
    endloop
  endfacet
  facet normal -0.591749 -0.806122 -0
    outer loop
      vertex 82.7632 20.3974 -3
      vertex 81.9985 20.9587 -4
      vertex 82.7632 20.3974 -4
    endloop
  endfacet
  facet normal -0.99835 -0.0574159 0
    outer loop
      vertex 84.4 14.03 -4
      vertex 84.2866 16.0021 -3
      vertex 84.2866 16.0021 -4
    endloop
  endfacet
  facet normal -0.99835 -0.0574159 0
    outer loop
      vertex 84.2866 16.0021 -3
      vertex 84.4 14.03 -4
      vertex 84.4 14.03 -3
    endloop
  endfacet
  facet normal 0.989822 -0.142313 0
    outer loop
      vertex 62.4 14.03 -3
      vertex 62.6835 16.0021 -4
      vertex 62.6835 16.0021 -3
    endloop
  endfacet
  facet normal 0.989822 -0.142313 0
    outer loop
      vertex 62.6835 16.0021 -4
      vertex 62.4 14.03 -3
      vertex 62.4 14.03 -4
    endloop
  endfacet
  facet normal 0.909632 -0.415415 0
    outer loop
      vertex 62.6835 16.0021 -3
      vertex 63.5112 17.8145 -4
      vertex 63.5112 17.8145 -3
    endloop
  endfacet
  facet normal 0.909632 -0.415415 0
    outer loop
      vertex 63.5112 17.8145 -4
      vertex 62.6835 16.0021 -3
      vertex 62.6835 16.0021 -4
    endloop
  endfacet
  facet normal 0.540639 -0.841255 0
    outer loop
      vertex 64.816 19.3202 -4
      vertex 66.4921 20.3974 -3
      vertex 64.816 19.3202 -3
    endloop
  endfacet
  facet normal 0.540639 -0.841255 0
    outer loop
      vertex 66.4921 20.3974 -3
      vertex 64.816 19.3202 -4
      vertex 66.4921 20.3974 -4
    endloop
  endfacet
  facet normal -0.944856 -0.327487 0
    outer loop
      vertex 83.9555 17.8145 -4
      vertex 83.4336 19.3202 -3
      vertex 83.4336 19.3202 -4
    endloop
  endfacet
  facet normal -0.944856 -0.327487 0
    outer loop
      vertex 83.4336 19.3202 -3
      vertex 83.9555 17.8145 -4
      vertex 83.9555 17.8145 -3
    endloop
  endfacet
  facet normal -0.848984 -0.528419 0
    outer loop
      vertex 83.4336 19.3202 -4
      vertex 82.7632 20.3974 -3
      vertex 82.7632 20.3974 -4
    endloop
  endfacet
  facet normal -0.848984 -0.528419 0
    outer loop
      vertex 82.7632 20.3974 -3
      vertex 83.4336 19.3202 -4
      vertex 83.4336 19.3202 -3
    endloop
  endfacet
  facet normal -0.848984 0.528418 0
    outer loop
      vertex 82.7632 7.66258 -4
      vertex 83.4336 8.73975 -3
      vertex 83.4336 8.73975 -4
    endloop
  endfacet
  facet normal -0.848984 0.528418 0
    outer loop
      vertex 83.4336 8.73975 -3
      vertex 82.7632 7.66258 -4
      vertex 82.7632 7.66258 -3
    endloop
  endfacet
  facet normal -0.591748 0.806123 0
    outer loop
      vertex 82.7632 7.66258 -4
      vertex 81.9985 7.10125 -3
      vertex 82.7632 7.66258 -3
    endloop
  endfacet
  facet normal -0.591748 0.806123 0
    outer loop
      vertex 81.9985 7.10125 -3
      vertex 82.7632 7.66258 -4
      vertex 81.9985 7.10125 -4
    endloop
  endfacet
  facet normal 0.75575 0.65486 0
    outer loop
      vertex 64.816 8.73975 -3
      vertex 63.5112 10.2455 -4
      vertex 63.5112 10.2455 -3
    endloop
  endfacet
  facet normal 0.75575 0.65486 0
    outer loop
      vertex 63.5112 10.2455 -4
      vertex 64.816 8.73975 -3
      vertex 64.816 8.73975 -4
    endloop
  endfacet
  facet normal 0.281733 0.959493 -0
    outer loop
      vertex 68.4038 7.10125 -4
      vertex 66.4921 7.66258 -3
      vertex 68.4038 7.10125 -3
    endloop
  endfacet
  facet normal 0.281733 0.959493 0
    outer loop
      vertex 66.4921 7.66258 -3
      vertex 68.4038 7.10125 -4
      vertex 66.4921 7.66258 -4
    endloop
  endfacet
  facet normal 1 -0 0
    outer loop
      vertex 56.42 17.81 0
      vertex 56.42 20.61 -3
      vertex 56.42 20.61 0
    endloop
  endfacet
  facet normal 1 0 0
    outer loop
      vertex 56.42 20.61 -3
      vertex 56.42 17.81 0
      vertex 56.42 17.81 -3
    endloop
  endfacet
  facet normal 0 -1 0
    outer loop
      vertex 29.32 17.81 -3
      vertex 56.42 17.81 0
      vertex 29.32 17.81 0
    endloop
  endfacet
  facet normal 0 -1 -0
    outer loop
      vertex 56.42 17.81 0
      vertex 29.32 17.81 -3
      vertex 56.42 17.81 -3
    endloop
  endfacet
  facet normal 1 -0 0
    outer loop
      vertex 29.32 10.25 0
      vertex 29.32 17.81 -3
      vertex 29.32 17.81 0
    endloop
  endfacet
  facet normal 1 0 0
    outer loop
      vertex 29.32 17.81 -3
      vertex 29.32 10.25 0
      vertex 29.32 10.25 -3
    endloop
  endfacet
  facet normal 0 1 -0
    outer loop
      vertex 56.42 10.25 -3
      vertex 29.32 10.25 0
      vertex 56.42 10.25 0
    endloop
  endfacet
  facet normal 0 1 0
    outer loop
      vertex 29.32 10.25 0
      vertex 56.42 10.25 -3
      vertex 29.32 10.25 -3
    endloop
  endfacet
  facet normal 1 -0 0
    outer loop
      vertex 56.42 7.45001 0
      vertex 56.42 10.25 -3
      vertex 56.42 10.25 0
    endloop
  endfacet
  facet normal 1 0 0
    outer loop
      vertex 56.42 10.25 -3
      vertex 56.42 7.45001 0
      vertex 56.42 7.45001 -3
    endloop
  endfacet
  facet normal 0.208998 0.977916 -0
    outer loop
      vertex 86.6 1 -3
      vertex 56.42 7.45001 0
      vertex 86.6 1 0
    endloop
  endfacet
  facet normal 0.208998 0.977916 0
    outer loop
      vertex 56.42 7.45001 0
      vertex 86.6 1 -3
      vertex 56.42 7.45001 -3
    endloop
  endfacet
  facet normal 0 1 -0
    outer loop
      vertex 87.1 1 -3
      vertex 86.6 1 0
      vertex 87.1 1 0
    endloop
  endfacet
  facet normal 0 1 0
    outer loop
      vertex 86.6 1 0
      vertex 87.1 1 -3
      vertex 86.6 1 -3
    endloop
  endfacet
  facet normal 0 -1 0
    outer loop
      vertex 86.6 27.06 -3
      vertex 87.1 27.06 0
      vertex 86.6 27.06 0
    endloop
  endfacet
  facet normal 0 -1 -0
    outer loop
      vertex 87.1 27.06 0
      vertex 86.6 27.06 -3
      vertex 87.1 27.06 -3
    endloop
  endfacet
  facet normal 0.208998 -0.977916 0
    outer loop
      vertex 56.42 20.61 -3
      vertex 86.6 27.06 0
      vertex 56.42 20.61 0
    endloop
  endfacet
  facet normal 0.208998 -0.977916 0
    outer loop
      vertex 86.6 27.06 0
      vertex 56.42 20.61 -3
      vertex 86.6 27.06 -3
    endloop
  endfacet
endsolid OpenSCAD_Model
